<svg width="621" height="314" xmlns="http://www.w3.org/2000/svg" xmlns:xlink="http://www.w3.org/1999/xlink" xml:space="preserve" overflow="hidden"><defs><filter id="fx0" x="-10%" y="-10%" width="120%" height="120%" filterUnits="userSpaceOnUse" primitiveUnits="userSpaceOnUse"><feComponentTransfer color-interpolation-filters="sRGB"><feFuncR type="discrete" tableValues="0 0"/><feFuncG type="discrete" tableValues="0 0"/><feFuncB type="discrete" tableValues="0 0"/><feFuncA type="linear" slope="0.4" intercept="0"/></feComponentTransfer><feGaussianBlur stdDeviation="1.77778 1.77778"/></filter><clipPath id="clip1"><rect x="515" y="163" width="621" height="314"/></clipPath><clipPath id="clip2"><rect x="3" y="15" width="613" height="105"/></clipPath></defs><g clip-path="url(#clip1)" transform="translate(-515 -163)"><g clip-path="url(#clip2)" filter="url(#fx0)" transform="translate(514 162)"><g><g><g><g><path d="M408.769 273.896C407.221 273.516 405.67 273.132 404.137 272.781 375.727 267.374 347.318 269.176 315.754 265.57 293.764 261.981 268.649 263.748 246.634 263.765 246.461 263.765 246.461 263.774 246.634 263.785 298.896 267.084 353.802 265.857 404.008 278.312 404.016 278.314 404.018 278.324 404.012 278.33 398.93 282.58 392.857 285.969 385.788 285.969 368.761 284.29 351.957 283.116 335.292 282.31L335.292 275.15C287.947 280.56 243.752 266.134 196.407 275.15 197.823 275.958 197.342 277.125 196.946 278.17 196.871 278.368 196.743 278.747 196.743 278.747 196.743 278.747 197.184 278.73 197.405 278.722 243.725 277.007 287.078 278.743 333.363 282.223 333.371 282.224 333.375 282.224 333.37 282.224 261.153 278.851 191.525 282.363 117.498 282.363 114.347 282.363 108.032 282.363 104.875 282.363 92.2539 276.958 79.6283 275.152 67.0157 275.151 67.0087 275.151 67.0037 275.144 67.0067 275.138 70.141 266.118 57.5395 248.107 82.7837 251.711L82.7837 244.5C57.5274 235.485 48.0562 210.241 73.3125 203.028 101.716 195.818 139.596 203.028 174.309 199.423 199.567 197.62 224.819 195.817 250.062 199.423 284.781 204.833 322.66 203.028 357.375 210.241 370.005 212.044 392.103 206.636 398.418 212.044 402.953 214.635 403.133 218.474 402.439 222.754 381.685 222.118 360.996 221.921 340.538 221.134 315.905 219.152 291.268 216.952 266.649 213.481 266.186 213.416 266.664 213.564 267.367 213.702 291.231 218.341 315.712 220.179 340.537 221.134 360.948 222.779 381.374 224.276 401.788 226.208 401.041 229.888 400.323 233.727 401.568 237.287L411.034 237.287C423.665 246.302 420.501 258.926 414.199 267.942 412.591 269.769 410.784 271.833 408.769 273.896Z" fill="#DA7144" transform="matrix(1.65412 -2.02572e-16 -1.22465e-16 -1 -86.0753 308.828)"/></g></g></g></g></g><g><g><g><path d="M408.769 273.896C407.221 273.516 405.67 273.132 404.137 272.781 375.727 267.374 347.318 269.176 315.754 265.57 293.764 261.981 268.649 263.748 246.634 263.765 246.461 263.765 246.461 263.774 246.634 263.785 298.896 267.084 353.802 265.857 404.008 278.312 404.016 278.314 404.018 278.324 404.012 278.33 398.93 282.58 392.857 285.969 385.788 285.969 368.761 284.29 351.957 283.116 335.292 282.31L335.292 275.15C287.947 280.56 243.752 266.134 196.407 275.15 197.823 275.958 197.342 277.125 196.946 278.17 196.871 278.368 196.743 278.747 196.743 278.747 196.743 278.747 197.184 278.73 197.405 278.722 243.725 277.007 287.078 278.743 333.363 282.223 333.371 282.224 333.375 282.224 333.37 282.224 261.153 278.851 191.525 282.363 117.498 282.363 114.347 282.363 108.032 282.363 104.875 282.363 92.2539 276.958 79.6283 275.152 67.0157 275.151 67.0087 275.151 67.0037 275.144 67.0067 275.138 70.141 266.118 57.5395 248.107 82.7837 251.711L82.7837 244.5C57.5274 235.485 48.0562 210.241 73.3125 203.028 101.716 195.818 139.596 203.028 174.309 199.423 199.567 197.62 224.819 195.817 250.062 199.423 284.781 204.833 322.66 203.028 357.375 210.241 370.005 212.044 392.103 206.636 398.418 212.044 402.953 214.635 403.133 218.474 402.439 222.754 381.685 222.118 360.996 221.921 340.538 221.134 315.905 219.152 291.268 216.952 266.649 213.481 266.186 213.416 266.664 213.564 267.367 213.702 291.231 218.341 315.712 220.179 340.537 221.134 360.948 222.779 381.374 224.276 401.788 226.208 401.041 229.888 400.323 233.727 401.568 237.287L411.034 237.287C423.665 246.302 420.501 258.926 414.199 267.942 412.591 269.769 410.784 271.833 408.769 273.896Z" fill="#DA7144" transform="matrix(1.65412 -2.02572e-16 -1.22465e-16 -1 425.096 468)"/></g></g></g></g></svg>